HIERARCHY
ROOT Hips
{
  OFFSET -278.467 93.5854 -237.511
  CHANNELS 6 Xposition Yposition Zposition Zrotation Xrotation Yrotation
  JOINT ToSpine
  {
    OFFSET -0.0105055 1.38907 -7.13956
    CHANNELS 3 Zrotation Xrotation Yrotation
    JOINT Spine
    {
      OFFSET 0.0105055 10 1
      CHANNELS 3 Zrotation Xrotation Yrotation
      JOINT Spine1
      {
        OFFSET 0 12 1.60637
        CHANNELS 3 Zrotation Xrotation Yrotation
        JOINT Neck
        {
          OFFSET 0 27 2.26658
          CHANNELS 3 Zrotation Xrotation Yrotation
          JOINT Head
          {
            OFFSET 0 9 2.12705
            CHANNELS 3 Zrotation Xrotation Yrotation
            End Site
            {
              OFFSET 0 11 2
            }
          }
        }
        JOINT LeftShoulder
        {
          OFFSET 8 19.6109 2.86452
          CHANNELS 3 Zrotation Xrotation Yrotation
          JOINT LeftArm
          {
            OFFSET 12 1 0.681055
            CHANNELS 3 Zrotation Xrotation Yrotation
            JOINT LeftForeArm
            {
              OFFSET 19 0 -1.52608
              CHANNELS 3 Zrotation Xrotation Yrotation
              JOINT LeftHand
              {
                OFFSET 23 0 0
                CHANNELS 3 Zrotation Xrotation Yrotation
                End Site
                {
                  OFFSET 10 0 0
                }
              }
            }
          }
        }
        JOINT RightShoulder
        {
          OFFSET -8 19.6109 2.86452
          CHANNELS 3 Zrotation Xrotation Yrotation
          JOINT RightArm
          {
            OFFSET -12 1 0.681055
            CHANNELS 3 Zrotation Xrotation Yrotation
            JOINT RightForeArm
            {
              OFFSET -19 0 -1.52608
              CHANNELS 3 Zrotation Xrotation Yrotation
              JOINT RightHand
              {
                OFFSET -23 0 0
                CHANNELS 3 Zrotation Xrotation Yrotation
                End Site
                {
                  OFFSET -10 0 0
                }
              }
            }
          }
        }
      }
    }
  }
  JOINT LeftUpLeg
  {
    OFFSET 9 -7.17245 0
    CHANNELS 3 Zrotation Xrotation Yrotation
    JOINT LeftLeg
    {
      OFFSET 0 -44.1113 0
      CHANNELS 3 Zrotation Xrotation Yrotation
      JOINT LeftFoot
      {
        OFFSET 0 -36.1829 0
        CHANNELS 3 Zrotation Xrotation Yrotation
        JOINT LeftToeBase
        {
          OFFSET 0 -4.84184 13
          CHANNELS 3 Zrotation Xrotation Yrotation
          End Site
          {
            OFFSET 0 1 6
          }
        }
      }
    }
  }
  JOINT RightUpLeg
  {
    OFFSET -9 -7.17245 0
    CHANNELS 3 Zrotation Xrotation Yrotation
    JOINT RightLeg
    {
      OFFSET 0 -44.0551 0
      CHANNELS 3 Zrotation Xrotation Yrotation
      JOINT RightFoot
      {
        OFFSET 0 -36.1469 0
        CHANNELS 3 Zrotation Xrotation Yrotation
        JOINT RightToeBase
        {
          OFFSET 0 -4.92256 13
          CHANNELS 3 Zrotation Xrotation Yrotation
          End Site
          {
            OFFSET 0 1 6
          }
        }
      }
    }
  }
}
MOTION
Frames:	10
Frame Time:	0.0333333
-114.908 90.7341 -47.2459 -3.56315 11.3873 89.5608 0 0 0 13.9943 16.427 13.078 -27.2953 0.406552 19.9959 10.2479 -23.2277 -30.438 -5.53603 -1.63046 -26.4407 -13.5709 1.15487 -2.11102 -58.7959 14.9091 48.1187 25.8741 23.7936 -50.2458 -7.69325 0.460881 -6.84641 7.9362 -3.27544 -24.4382 -17.193 -18.3639 88.668 -15.9341 1.93482 83.2557 4.42184 0.460013 11.8727 -20.1318 -49.8749 -7.57084 -3.97938e-006 68.342 -24.3939 23.9554 -19.7885 4.23843 0.876369 -7.44966 -2.18779 11.9168 15.0388 -6.00529 2.49765 15.7587 -7.18849 -2.33122 -14.4388 -0.295342 -1.2565 -0.419439 10.5048 
-106.265 91.401 -39.0304 -5.45505 12.162 86.0898 0 0 0 12.6513 12.7901 14.3545 -30.1345 1.53297 21.2379 13.6271 -27.8085 -30.1419 -6.38247 1.37594 -25.6754 -14.169 1.38099 -3.03525 -53.9312 16.963 50.128 32.1839 19.0084 -62.6368 -8.8231 0.551593 -7.14055 -8.81147 0.0861807 8.11973 -6.02114 -3.50674 41.8212 -14.3233 8.67914e-016 90 3.45806 0.287544 9.50377 -21.0977 -50.7105 -2.225 -1.24462e-007 59.4797 -26.7151 19.485 -13.0114 2.24338 0.996484 -10.5398 -1.98378 14.1038 20.7271 -6.57376 3.94736 4.99253 -2.72436 -18.0593 13.0127 2.07663 4.7282 -18.5131 -6.69513 
-98.7881 91.139 -31.2201 -7.12163 10.3267 82.874 0 0 0 15.2068 10.3903 14.7695 -33.3473 2.64414 22.3324 16.9896 -30.0083 -29.359 -6.98464 0.066552 -25.0508 -18.0267 1.94588 -4.38171 -47.0533 20.0636 45.9042 31.3682 15.3779 -66.4918 -9.02146 0.54069 -6.84561 -7.97937 0.319639 18.0548 3.08026 3.85405 22.5582 -22.9415 0.0844911 89.8004 4.08876 0.312635 8.74121 -17.6718 -50.1756 2.96412 1.1768e-006 52.8282 -29.9099 19.7836 -8.08545 1.41222 1.22642 -12.8785 -2.83512 16.2825 19.3493 -7.97135 6.15346 15.6917 -3.18766 -11.3558 5.06389 0.503794 4.84183 -18.4376 -3.68746 
-91.6843 90.791 -23.2834 -6.39242 8.12784 79.3405 0 0 0 14.4983 11.2382 13.9527 -31.654 2.57154 21.2848 17.3266 -32.8441 -27.1037 -4.61953 1.88039 -23.5612 -24.4522 2.48446 -4.5827 -38.262 23.2527 37.7153 27.8222 12.2397 -68.1136 -8.38721 0.408294 -5.56407 -1.05422 1.66326 18.34 5.27305 8.59868 15.002 -24.2842 1.34884 87.0134 2.97918 0.220245 8.45427 -12.1749 -44.9738 6.09676 -1.40873e-006 48.3601 -32.3476 14.091 -9.04319 1.11995 1.00055 -6.3131 -3.15049 16.6998 16.1415 -21.2575 3.41147e-007 36.5392 10.5851 -13.0309 -2.10698 -0.240663 3.10452 -11.5549 -0.41869 
-84.4297 90.9101 -15.5096 -3.71335 8.95933 75.9943 0 0 0 9.573 12.9113 12.4633 -29.0333 2.77127 19.532 19.7199 -31.4889 -24.001 -3.55689 0.0418587 -20.9248 -26.0388 3.04046 -5.91987 -32.6317 23.3466 27.6902 25.9303 9.83491 -70.6438 -7.07092 0.423653 -6.84889 6.45768 3.38498 20.0749 9.54832 13.426 3.48569 -20.7199 2.25605 84.0587 1.25236 0.0732746 6.69675 -11.4671 -36.2368 4.77919 -2.10001e-006 45.562 -26.6813 21.8974 -4.25363 0.823237 1.69744 -12.4538 -6.52675 11.1695 11.6506 -20.9073 -9.29001e-009 59.8027 0.268078 -22.4805 -7.89109 -1.57062 3.27193 -12.0092 -2.92038 
-77.5103 89.766 -8.27763 -2.75522 9.39794 74.2829 0 0 0 6.70158 12.7992 9.99814 -26.7327 2.79913 16.5401 20.5629 -30.3498 -20.8941 -1.51639 -1.6885 -18.4023 -28.5351 3.39727 -6.28806 -22.3082 24.1884 11.6566 23.2615 6.72139 -74.7692 -6.58976 0.369782 -6.41648 13.489 4.82275 19.7362 16.2563 15.8775 -9.1623 -23.4473 2.43416 84.4072 1.91969 0.0996468 5.9423 -9.67538 -32.6128 -0.214911 -1.40891e-006 54.4982 -20.9632 22.0788 -20.6532 4.0718 0.712152 -5.72084 -1.76351 5.61714 2.63514 -19.7129 5.80783e-008 83.256 -14.2649 -27.1063 -13.5707 -3.28584 4.05876 -15.2012 -3.19879 
-70.6566 88.513 -1.19781 -1.05219 11.7176 73.2029 0 0 0 0.931678 14.4672 6.9248 -22.7216 2.39708 12.1834 20.5222 -31.236 -17.3833 1.66648 -2.40909 -15.9366 -26.7677 3.27123 -6.41624 -14.7558 18.598 -10.3911 21.8708 4.35566 -79.2861 -4.44587 0.205664 -5.29453 16.3307 5.25184 18.9778 29.964 17.4259 -22.6692 -20.7705 2.28093 84.0096 -0.569357 -0.0283164 5.69435 -8.11157 -25.4447 0.126397 -7.18378e-007 56.0311 -20.3467 21.5106 -28.0705 5.43724 1.11439 -10.9848 -2.63706 -2.12534 -8.51631 -15.0837 -180 76.2062 165.53 -35.2209 -23.3785 -7.51468 3.43519 -12.5891 -4.5742 
-63.869 88.2652 6.37402 -1.8235 9.64667 70.0729 0 0 0 0.395998 15.6842 4.22408 -18.2653 0.741597 8.22208 19.4568 -29.0707 -13.2912 1.96846 -1.85614 -11.8783 -21.9996 3.19164 -7.7207 -12.6521 7.79574 -24.7622 20.9939 2.06778 -84.6285 -5.06596 0.303746 -6.85805 13.8605 4.08833 15.9549 47.4893 20.0955 -33.2723 -23.4117 2.52609 84.1877 2.90483 0.16573 6.52934 0.998692 -16.9929 6.85378 2.11568e-008 53.1642 -24.8088 20.0356 -34.8872 6.35395 1.31751 -8.92529 -4.44841 -2.71643 -23.2029 -6.50028 -180 66.3388 166.677 -38.7317 -27.5276 -9.84178 4.34508 -16.3125 -2.6989 
-56.3976 88.5842 14.2863 -4.67797 8.29796 67.1608 0 0 0 0.349854 14.8843 0.456959 -14.5159 -2.64235 3.07836 20.7544 -25.0307 -7.95705 1.30405 0.100348 -6.04465 -15.3712 2.74036 -8.79734 -8.58424 -1.48066 -32.857 22.177 -0.965454 -92.367 -3.46473 0.192573 -6.36064 11.7725 3.28945 13.753 63.0507 21.6219 -44.4975 -28.6822 3.05278 84.44 3.05354 0.147481 5.52898 7.67887 -7.8382 11.838 2.25173e-007 44.6701 -27.8762 21.6288 -31.8887 6.24747 1.31658 -16.9501 -1.84137 -1.50892 -40.5099 1.48004 180 65.9772 163.377 -36.0787 -30.2532 -10.0624 3.4814 -12.8892 -2.15592 
-47.9511 89.7684 22.9991 -6.05519 5.43664 65.2771 0 0 0 -0.108681 15.9788 -4.6209 -8.31334 -5.49196 -3.40967 22.7177 -22.2685 -1.70875 0.793581 3.48109 0.54685 -4.81968 1.6107 -9.1266 -7.48585 -9.25102 -31.4046 21.4867 -4.08234 -100.251 -3.14951 0.207911 -7.55179 9.33216 2.804 13.1464 71.7402 19.487 -54.6785 -25.6991 2.7478 84.3112 4.3339 0.21892 5.78074 12.3861 4.23079 11.1552 4.40842e-007 32.1452 -26.7274 14.6952 -21.3067 2.77899 1.99156 -28.4616 -0.617376 2.73046 -51.227 8.25882 180 75.5128 161.091 -31.2542 -31.1442 -8.9145 2.56027 -9.0798 -3.02328 
